<svg width="84" height="70" viewBox="0 0 84 70" fill="none" xmlns="http://www.w3.org/2000/svg">
<path d="M23.2008 68.7107C22.6963 68.7107 19.6613 68.7108 15.3304 68.3323C13.7354 68.193 13.5224 67.1971 13.2663 66.4287C13.0102 65.6604 12.7579 64.9036 12.7541 64.1353C12.7388 61.0541 17.5742 58.7877 20.1391 58.134C23.3877 57.3061 9.22598 56.7541 4.86457 54.067C3.10474 52.9827 2.05507 51.1351 1.29058 49.4838C0.899257 48.6386 1.03066 47.5803 1.40908 46.682C2.96403 42.991 6.36679 40.9445 10.8199 38.5211C12.3135 37.7083 14.7456 38.1312 16.546 38.7619C18.3463 39.3926 19.6077 40.654 20.3837 41.6822C21.1597 42.7105 21.4119 43.4673 21.1635 44.1095C20.915 44.7517 20.1582 45.2562 19.2637 44.507C13.7174 39.8614 14.7915 30.0276 15.9305 25.0202C17.0901 19.9231 24.6992 18.7743 29.3015 17.6199C30.3031 17.3687 31.335 17.49 32.2333 17.8684C34.0829 18.6476 35.1727 20.5403 36.1895 21.3086C40.4528 24.5302 43.0623 8.08677 46.124 3.87062C46.8186 2.91418 47.6492 2.2155 49.1744 1.82561C50.6995 1.43572 52.97 1.43572 54.5181 1.94028C59.3395 3.5117 60.9054 8.30083 62.0598 11.4887C62.3675 12.3386 62.1898 13.3923 61.8114 14.0383C60.0546 17.0372 54.5602 15.961 52.1406 15.5826C51.1706 15.4309 50.9824 14.4473 50.8524 13.3006C50.7224 12.1539 50.7224 10.6402 51.1009 9.73425C52.4417 6.5244 59.8657 7.81156 71.4477 7.80391C74.9926 7.80157 76.9597 10.0897 78.6148 11.9971C79.5131 13.6523 80.2776 15.6934 81.1682 17.9831C81.5543 19.0113 81.8066 19.7682 82.0665 22.0769" stroke="#EB5757" stroke-width="2" stroke-linecap="round"/>
</svg>
