<svg width="97" height="81" viewBox="0 0 97 81" fill="none" xmlns="http://www.w3.org/2000/svg">
<path d="M76.6412 1.15967C77.1458 1.15967 78.6671 1.41195 81.4613 2.4249C85.0989 3.74357 87.3364 7.76485 88.7355 11.8319C90.11 15.8278 90.402 19.9967 89.8975 23.1808C89.5728 25.2294 84.8213 24.8588 80.6204 24.6065C78.9265 24.5048 78.1855 23.8497 78.3002 23.5898C79.6861 20.4483 88.8272 27.8862 93.3224 32.4884C96.4743 35.7154 95.7535 42.1516 95.2489 47.503C94.8414 51.8249 86.098 50.087 81.641 49.7085C79.9232 49.5627 79.4545 48.5733 79.0685 47.6788C78.2728 45.8354 77.9179 43.9787 77.5357 42.3274C77.3318 41.4468 77.4057 40.4238 78.9194 39.904C80.4331 39.3841 83.4605 39.3841 85.2723 40.141C90.7672 42.4363 89.3776 49.3072 89.2591 55.4155C89.1768 59.6568 81.7633 61.539 73.6253 63.5878C65.7666 65.5664 59.8301 63.5955 58.305 62.961C55.2123 61.6743 54.9833 58.504 54.7272 57.7357C54.4787 56.9903 55.2355 61.5314 54.6048 65.2238C53.7749 70.0829 46.5968 70.2083 40.6109 71.3627C38.4827 71.7731 35.42 71.4927 33.6081 71.1142C31.7963 70.7358 31.2917 69.979 30.9057 69.2107C30.1633 67.7333 30.0074 66.1489 30.512 64.6237C32.0483 59.9797 38.9061 59.0162 45.4004 59.127C51.2397 59.2267 49.8841 69.1763 49.3796 72.7426C48.7846 76.948 38.7226 77.0887 32.32 78.8776C27.3806 80.2577 20.6195 78.8929 15.4974 76.2172C11.6673 74.046 7.60788 70.4988 4.78691 66.9172C4.27471 66.1489 3.77014 65.392 1.72131 63.0833" stroke="#EB5757" stroke-width="2" stroke-linecap="round"/>
</svg>
